<svg width="26" height="26" viewBox="0 0 26 26" fill="none" xmlns="http://www.w3.org/2000/svg">
<path d="M22.0856 5.48027H17.3882V4.69738C17.3882 3.36646 16.3704 2.34869 15.0395 2.34869H11.9079C10.577 2.34869 9.55924 3.36646 9.55924 4.69738V5.48027H4.86187C4.39214 5.48027 4.07898 5.79343 4.07898 6.26317C4.07898 6.7329 4.39214 7.04606 4.86187 7.04606H5.64477V18.7895C5.64477 20.9816 7.36714 22.704 9.55924 22.704H17.3882C19.5803 22.704 21.3027 20.9816 21.3027 18.7895V7.04606H22.0856C22.5553 7.04606 22.8685 6.7329 22.8685 6.26317C22.8685 5.79343 22.5553 5.48027 22.0856 5.48027ZM11.125 4.69738C11.125 4.22764 11.4382 3.91448 11.9079 3.91448H15.0395C15.5092 3.91448 15.8224 4.22764 15.8224 4.69738V5.48027H11.125V4.69738ZM19.7369 18.7895C19.7369 20.1204 18.7191 21.1382 17.3882 21.1382H9.55924C8.22832 21.1382 7.21056 20.1204 7.21056 18.7895V7.04606H19.7369V18.7895ZM12.6908 17.2237V10.9605C12.6908 10.4908 13.004 10.1776 13.4737 10.1776C13.9435 10.1776 14.2566 10.4908 14.2566 10.9605V17.2237C14.2566 17.6934 13.9435 18.0066 13.4737 18.0066C13.004 18.0066 12.6908 17.6934 12.6908 17.2237ZM10.3421 10.1776C10.8119 10.1776 11.125 10.4908 11.125 10.9605V17.2237C11.125 17.6934 10.8119 18.0066 10.3421 18.0066C9.8724 18.0066 9.55924 17.6934 9.55924 17.2237V10.9605C9.55924 10.4908 9.8724 10.1776 10.3421 10.1776ZM15.8224 17.2237V10.9605C15.8224 10.4908 16.1356 10.1776 16.6053 10.1776C17.075 10.1776 17.3882 10.4908 17.3882 10.9605V17.2237C17.3882 17.6934 17.075 18.0066 16.6053 18.0066C16.1356 18.0066 15.8224 17.6934 15.8224 17.2237Z" fill="#666666"/>
</svg>
