<svg width="36" height="36" viewBox="0 0 36 36" fill="none" xmlns="http://www.w3.org/2000/svg">
<path d="M14.1192 8.72998H13.194C12.1176 8.72998 11.2428 9.60478 11.2428 10.6812V25.3152C11.2428 26.3916 12.1176 27.2664 13.194 27.2664H14.1192C15.1956 27.2664 16.0704 26.3916 16.0704 25.3152V10.6848C16.0704 9.60838 15.1956 8.72998 14.1192 8.72998Z" fill="#666666"/>
<path d="M22.8096 8.72998H21.8844C20.808 8.72998 19.9332 9.60478 19.9332 10.6812V25.3152C19.9332 26.3916 20.808 27.2664 21.8844 27.2664H22.8096C23.886 27.2664 24.7608 26.3916 24.7608 25.3152V10.6848C24.7608 9.60838 23.886 8.72998 22.8096 8.72998Z" fill="#666666"/>
</svg>
