<svg width="36" height="36" viewBox="0 0 36 36" fill="none" xmlns="http://www.w3.org/2000/svg">
<path d="M24.9444 9.02161C23.958 9.02161 23.1588 9.82441 23.1588 10.8108V16.92L10.458 9.58681C10.3356 9.51481 10.1988 9.47881 10.062 9.47881C9.92522 9.47881 9.78842 9.51481 9.66602 9.58681C9.41762 9.73081 9.27002 9.98641 9.27002 10.2744V25.7292C9.27002 26.0172 9.41762 26.2728 9.66602 26.4168C9.91442 26.5608 10.2096 26.5608 10.458 26.4168L23.1552 19.0836V25.1928C23.1552 26.1792 23.958 26.982 24.9408 26.982C25.9272 26.982 26.73 26.1792 26.73 25.1928V10.8072C26.73 9.82081 25.9308 9.02161 24.9444 9.02161Z" fill="#666666"/>
</svg>
