<svg width="36" height="36" viewBox="0 0 36 36" fill="none" xmlns="http://www.w3.org/2000/svg">
<path d="M11.0556 9.02161C12.042 9.02161 12.8412 9.82441 12.8412 10.8108V16.92L25.5384 9.58681C25.6608 9.51481 25.7976 9.47881 25.9344 9.47881C26.0712 9.47881 26.208 9.51481 26.3304 9.58681C26.5788 9.73081 26.7264 9.98641 26.7264 10.2744V25.7292C26.7264 26.0172 26.5788 26.2728 26.3304 26.4168C26.082 26.5608 25.7868 26.5608 25.5384 26.4168L12.8448 19.0836V25.1928C12.8448 26.1792 12.042 26.982 11.0592 26.982C10.0728 26.982 9.27002 26.1792 9.27002 25.1928V10.8072C9.27002 9.82081 10.0692 9.02161 11.0556 9.02161Z" fill="#666666"/>
</svg>
