<svg width="26" height="26" viewBox="0 0 26 26" fill="none" xmlns="http://www.w3.org/2000/svg">
<path d="M22.1603 9.50696C22.6706 8.89836 22.9967 8.15684 23.1004 7.36941C23.2041 6.58198 23.0811 5.78131 22.7457 5.06135C22.4104 4.34138 21.8767 3.73198 21.2072 3.30466C20.5377 2.87734 19.7603 2.64982 18.9661 2.6488C18.8443 2.6488 18.7216 2.65402 18.5981 2.66446C18.0509 2.7102 17.5183 2.86434 17.0313 3.11793C16.5443 3.37151 16.1126 3.71947 15.7614 4.14152L7.37139 14.1365L7.0504 14.5358C6.87309 14.748 6.78725 15.0219 6.81171 15.2974C6.83618 15.5728 6.96895 15.8273 7.18088 16.005L11.9644 20.0317C12.1521 20.1898 12.3896 20.2766 12.6351 20.277C12.6654 20.2796 12.696 20.2796 12.7264 20.277C12.8631 20.2653 12.9961 20.2268 13.1179 20.1637C13.2397 20.1005 13.3479 20.014 13.4362 19.909L22.1577 9.50696H22.1603ZM19.2557 8.08992L18.4154 9.08942C18.2336 9.2874 17.9823 9.40759 17.7141 9.42495C17.4458 9.44231 17.1812 9.3555 16.9753 9.18261C16.7695 9.00972 16.6382 8.76407 16.609 8.49683C16.5797 8.2296 16.6547 7.96138 16.8183 7.74806L17.656 6.74856C17.7437 6.64237 17.8516 6.55459 17.9734 6.49027C18.0952 6.42595 18.2285 6.38638 18.3656 6.37382C18.5028 6.36126 18.6411 6.37596 18.7725 6.41709C18.904 6.45822 19.026 6.52495 19.1315 6.61345C19.2371 6.70194 19.3241 6.81045 19.3875 6.93271C19.4509 7.05498 19.4895 7.18858 19.501 7.32583C19.5126 7.46307 19.4968 7.60125 19.4547 7.73239C19.4126 7.86353 19.345 7.98504 19.2557 8.08992Z" fill="#666666"/>
<path d="M6.89646 17.1402C6.84404 17.096 6.78342 17.0625 6.71805 17.0417C6.65269 17.0209 6.58386 17.0132 6.51552 17.019C6.44717 17.0248 6.38064 17.044 6.31973 17.0756C6.25882 17.1071 6.20472 17.1504 6.16054 17.2028L3.09681 20.8563C3.03635 20.9287 2.99661 21.016 2.98181 21.1092C2.96701 21.2023 2.97771 21.2976 3.01277 21.3852C3.04783 21.4727 3.10595 21.5491 3.18094 21.6062C3.25592 21.6634 3.34499 21.6991 3.43867 21.7097L9.67313 22.4013C9.75862 22.4104 9.84504 22.3982 9.92472 22.3659C10.0044 22.3336 10.0748 22.2821 10.1298 22.216L10.9649 21.2295C11.0092 21.1771 11.0426 21.1165 11.0634 21.0511C11.0842 20.9858 11.092 20.9169 11.0861 20.8486C11.0803 20.7802 11.0611 20.7137 11.0295 20.6528C10.998 20.5919 10.9547 20.5378 10.9023 20.4936L6.89646 17.1402Z" fill="#666666"/>
</svg>
