<svg width="23" height="23" viewBox="0 0 23 23" fill="none" xmlns="http://www.w3.org/2000/svg">
<path d="M12.3924 5.96161L11.73 9.99581L14.5728 10.12H14.6602C14.7744 10.139 14.8826 10.1843 14.9763 10.2521C15.0701 10.3199 15.1469 10.4085 15.2007 10.511C15.253 10.6144 15.2803 10.7286 15.2803 10.8445C15.2803 10.9604 15.253 11.0746 15.2007 11.178L11.6403 18.009C11.581 18.1262 11.4816 18.2182 11.3603 18.2684C11.239 18.3187 11.1037 18.3239 10.9789 18.283C10.8541 18.2421 10.7481 18.158 10.6799 18.0457C10.6118 17.9334 10.5862 17.8005 10.6076 17.6709L11.27 13.6298L8.4249 13.4987H8.3375C8.22376 13.4793 8.11601 13.434 8.02267 13.3662C7.92932 13.2983 7.85288 13.2099 7.7993 13.1077C7.74714 13.0043 7.71996 12.8901 7.71996 12.7742C7.71996 12.6584 7.74714 12.5441 7.7993 12.4407L11.3551 5.62121C11.4166 5.50635 11.5167 5.41684 11.6376 5.36839C11.7586 5.31994 11.8927 5.31566 12.0165 5.35629C12.1403 5.39691 12.2459 5.47986 12.3146 5.59056C12.3834 5.70125 12.4109 5.83263 12.3924 5.96161ZM11.5 0.883209C11.2093 0.883209 10.9306 0.998675 10.725 1.20421C10.5195 1.40974 10.4041 1.6885 10.4041 1.97916C10.4041 2.26982 10.5195 2.54858 10.725 2.75411C10.9306 2.95964 11.2093 3.07511 11.5 3.07511C13.7341 3.07694 15.8762 3.96507 17.4561 5.54458C19.036 7.1241 19.9248 9.26594 19.9272 11.5C19.9272 11.7907 20.0427 12.0694 20.2482 12.275C20.4537 12.4805 20.7325 12.596 21.0232 12.596C21.3138 12.596 21.5926 12.4805 21.7981 12.275C22.0036 12.0694 22.1191 11.7907 22.1191 11.5C22.1161 8.6848 20.9962 5.98579 19.0053 3.99535C17.0145 2.00491 14.3152 0.885644 11.5 0.883209ZM10.3891 21.0197C10.3888 21.1635 10.4168 21.3059 10.4716 21.4389C10.5263 21.5718 10.6067 21.6927 10.7081 21.7945C10.8096 21.8964 10.9301 21.9773 11.0628 22.0326C11.1955 22.0879 11.3378 22.1165 11.4816 22.1168C11.698 22.1168 11.9096 22.0527 12.0896 21.9325C12.2696 21.8123 12.4099 21.6414 12.4928 21.4415C12.5758 21.2416 12.5976 21.0216 12.5555 20.8093C12.5135 20.597 12.4094 20.4019 12.2566 20.2487C12.1037 20.0955 11.9088 19.991 11.6966 19.9485C11.4844 19.906 11.2643 19.9274 11.0642 20.0099C10.8641 20.0924 10.693 20.2324 10.5724 20.4121C10.4519 20.5918 10.3873 20.8033 10.3868 21.0197H10.3891ZM1.978 12.5879C2.19482 12.5879 2.40676 12.5235 2.58695 12.4029C2.76714 12.2823 2.90745 12.1109 2.99011 11.9105C3.07276 11.71 3.09404 11.4895 3.05123 11.277C3.00843 11.0644 2.90347 10.8694 2.74967 10.7165C2.59587 10.5637 2.40015 10.46 2.18732 10.4185C1.9745 10.3771 1.75416 10.3997 1.55424 10.4836C1.35431 10.5676 1.18381 10.709 1.06434 10.8899C0.94488 11.0708 0.881834 11.2832 0.8832 11.5C0.885023 11.7892 1.00117 12.0659 1.20629 12.2697C1.41141 12.4735 1.68883 12.5879 1.978 12.5879ZM6.1778 20.6885C6.36512 20.797 6.58039 20.8476 6.79642 20.8337C7.01245 20.8199 7.21954 20.7424 7.39151 20.6109C7.56348 20.4794 7.6926 20.2999 7.76258 20.095C7.83255 19.8902 7.84022 19.6692 7.78462 19.46C7.72903 19.2508 7.61266 19.0627 7.45022 18.9197C7.28779 18.7766 7.08658 18.6848 6.87203 18.6561C6.65747 18.6273 6.43921 18.6628 6.24482 18.758C6.05043 18.8533 5.88864 19.004 5.7799 19.1912C5.63516 19.4428 5.59576 19.7414 5.6703 20.0219C5.74484 20.3024 5.92727 20.542 6.1778 20.6885ZM5.7937 3.80191C5.90299 3.98846 6.06506 4.13847 6.25949 4.23304C6.45391 4.3276 6.67198 4.36248 6.88621 4.33328C7.10043 4.30408 7.30121 4.21211 7.46323 4.06896C7.62525 3.9258 7.74126 3.73788 7.79663 3.52889C7.852 3.3199 7.84425 3.09919 7.77435 2.89459C7.70446 2.69 7.57556 2.51068 7.40389 2.37925C7.23223 2.24781 7.02549 2.17015 6.80974 2.15605C6.594 2.14195 6.37891 2.19204 6.1916 2.30001C6.06625 2.37191 5.95641 2.46796 5.86844 2.58261C5.78047 2.69725 5.71612 2.82821 5.67911 2.96789C5.64211 3.10758 5.63318 3.25322 5.65285 3.39638C5.67252 3.53954 5.72039 3.67738 5.7937 3.80191ZM2.7025 15.3019C2.51437 15.4102 2.36257 15.5718 2.26631 15.7663C2.17005 15.9608 2.13366 16.1796 2.16174 16.3948C2.18982 16.61 2.28112 16.8121 2.42407 16.9754C2.56702 17.1387 2.7552 17.256 2.96481 17.3123C3.17442 17.3687 3.39603 17.3616 3.60161 17.292C3.80719 17.2223 3.98749 17.0933 4.1197 16.9211C4.25191 16.749 4.33009 16.5415 4.34435 16.3249C4.35861 16.1083 4.3083 15.8924 4.1998 15.7044C4.05409 15.453 3.81461 15.2697 3.53391 15.1947C3.2532 15.1197 2.9542 15.159 2.7025 15.3042V15.3019ZM19.734 17.3719C19.9996 17.3731 20.2565 17.2777 20.457 17.1035C20.6575 16.9293 20.7878 16.6882 20.8236 16.4251C20.8595 16.1619 20.7985 15.8947 20.652 15.6732C20.5055 15.4517 20.2835 15.291 20.0273 15.221C19.7711 15.151 19.4982 15.1766 19.2595 15.2929C19.0207 15.4092 18.8324 15.6083 18.7295 15.8531C18.6267 16.098 18.6163 16.3719 18.7004 16.6238C18.7845 16.8757 18.9573 17.0884 19.1866 17.2224C19.3521 17.3213 19.5412 17.3738 19.734 17.3742V17.3719ZM3.8042 5.78681C3.61672 5.67867 3.40139 5.62852 3.18542 5.64271C2.96945 5.65689 2.76253 5.73478 2.5908 5.86651C2.41908 5.99825 2.29025 6.17793 2.22061 6.38286C2.15096 6.58778 2.14362 6.80875 2.19951 7.01785C2.25539 7.22694 2.372 7.41478 2.5346 7.55763C2.6972 7.70048 2.89849 7.79193 3.11305 7.82042C3.3276 7.84892 3.54578 7.81318 3.74003 7.71772C3.93428 7.62226 4.09587 7.47137 4.2044 7.28411C4.27659 7.15956 4.3235 7.02199 4.34245 6.87928C4.3614 6.73658 4.35202 6.59153 4.31485 6.45246C4.27768 6.31338 4.21344 6.183 4.12582 6.06878C4.03819 5.95456 3.9289 5.85874 3.8042 5.78681ZM15.3042 20.3021C15.4001 20.4692 15.5385 20.6081 15.7053 20.7046C15.8721 20.8011 16.0614 20.8519 16.2541 20.8518C16.4429 20.8489 16.6277 20.7966 16.79 20.7C16.9777 20.592 17.1291 20.4307 17.2251 20.2366C17.3211 20.0425 17.3574 19.8243 17.3294 19.6096C17.3014 19.3949 17.2103 19.1933 17.0677 19.0304C16.9252 18.8674 16.7375 18.7504 16.5284 18.6941C16.3193 18.6378 16.0982 18.6447 15.8931 18.7141C15.688 18.7835 15.508 18.9121 15.376 19.0837C15.244 19.2554 15.1658 19.4623 15.1514 19.6783C15.137 19.8944 15.187 20.1099 15.295 20.2975L15.3042 20.3021Z" fill="#666666"/>
</svg>
