<svg width="18" height="18" viewBox="0 0 18 18" fill="none" xmlns="http://www.w3.org/2000/svg">
<path d="M14.2561 3.13202H11.0881C10.7461 3.13202 10.4761 3.40202 10.4761 3.74402C10.4761 4.08602 10.7461 4.35602 11.0881 4.35602H12.7801L4.35608 12.78V11.088C4.35608 10.746 4.08608 10.476 3.74408 10.476C3.40208 10.476 3.13208 10.746 3.13208 11.088V14.256C3.13208 14.598 3.40208 14.868 3.74408 14.868H6.91208C7.25408 14.868 7.52408 14.598 7.52408 14.256C7.52408 13.914 7.25408 13.644 6.91208 13.644H5.22008L13.6441 5.22002V6.91202C13.6441 7.25402 13.9141 7.52402 14.2561 7.52402C14.5981 7.52402 14.8681 7.25402 14.8681 6.91202V3.74402C14.8681 3.40202 14.5981 3.13202 14.2561 3.13202Z" fill="#666666"/>
<path d="M14.5621 0.450012H3.43807C1.80007 0.450012 0.450073 1.80001 0.450073 3.43801V14.544C0.450073 16.2 1.80007 17.532 3.43807 17.532H14.5441C16.2001 17.532 17.5321 16.182 17.5321 14.544V3.43801C17.5501 1.80001 16.2001 0.450012 14.5621 0.450012ZM16.3261 14.562C16.3261 15.534 15.5341 16.344 14.5441 16.344H3.43807C2.46607 16.344 1.65607 15.552 1.65607 14.562V3.43801C1.65607 2.46601 2.44807 1.65601 3.43807 1.65601H14.5441C15.5161 1.65601 16.3261 2.44801 16.3261 3.43801V14.562Z" fill="#666666"/>
</svg>
